<svg xmlns="http://www.w3.org/2000/svg" xmlns:xlink="http://www.w3.org/1999/xlink" version="1.1" id="Capa_1" x="0px" y="0px"
				viewBox="0 0 512.001 512.001" style="enable-background:new 0 0 512.001 512.001;" xml:space="preserve">
					<g>
						<g>
							<path d="M290.091,96V0H69.652v96h-8.325v61.62h237.089V96H290.091z M84.652,15H275.09v81h-26.088V58.5h-15V96h-26.088V58.5h-15V96    h-26.088V58.5h-15V96h-26.088V58.5h-15V96H84.652V15z M283.416,142.62H76.327V111h207.089V142.62z"
							fill="#888888" />
						</g>
					</g>
					<g>
						<g>
							<path d="M274.579,189.652V170.12h-0.001h-15v27.273l34.57,24.57v8.203H65.594v-8.203l29.464-20.941h80.197v-15h-75.091V170.12h-15    v19.532l-34.57,24.57V512h258.555V214.222L274.579,189.652z M65.594,245.167h228.554v195.667H65.594V245.167z M294.149,497    L294.149,497H65.594v-41.167h228.555V497z"
							fill="#888888" />
						</g>
					</g>
					<g>
						<g>
							<rect x="186.37" y="467.65" width="15" height="15" fill="#888888" />
						</g>
					</g>
					<g>
						<g>
							<rect x="211.37" y="467.65" width="15" height="15" fill="#888888" />
						</g>
					</g>
					<g>
						<g>
							<rect x="236.37" y="467.65" width="15" height="15" fill="#888888" />
						</g>
					</g>
					<g>
						<g>
							<rect x="261.37" y="467.65" width="15" height="15" fill="#888888" />
						</g>
					</g>
					<g>
						<g>
							<rect x="265.29" y="262" width="15" height="15" fill="#888888" />
						</g>
					</g>
					<g>
						<g>
							<rect x="265.29" y="312" width="15" height="112" fill="#888888" />
						</g>
					</g>
					<g>
						<g>
							<rect x="265.29" y="287" width="15" height="15" fill="#888888" />
						</g>
					</g>
					<g>
						<g>
							<rect x="200.57" y="166.5" width="47.44" height="15" fill="#888888" />
						</g>
					</g>
					<g>
						<g>
							<rect x="378.16" y="450.51" width="15" height="15" fill="#888888" />
						</g>
					</g>
					<g>
						<g>
							<rect x="337.39" y="450.51" width="30.765" height="15" fill="#888888" />
						</g>
					</g>
					<g>
						<g>
							<rect x="403.16" y="450.51" width="15" height="15" fill="#888888" />
						</g>
					</g>
					<g>
						<g>
							<rect x="342.794" y="330.352" transform="matrix(0.7071 -0.7071 0.7071 0.7071 -136.2989 346.6496)" width="15" height="15"
							fill="#888888" />
						</g>
					</g>
					<g>
						<g>
							<rect x="383.721" y="363.403" transform="matrix(0.7071 -0.7071 0.7071 0.7071 -153.256 387.5788)" width="15" height="30.765"
							fill="#888888" />
						</g>
					</g>
					<g>
						<g>
							<rect x="360.474" y="348.043" transform="matrix(0.7071 -0.7071 0.7071 0.7071 -143.63 364.3329)" width="15" height="15" fill="#888888"
							/>
						</g>
					</g>
					<g>
						<g>
							<rect x="113.55" y="26.833" width="88" height="15" fill="#888888" />
						</g>
					</g>
					<g>
						<g>
							<rect x="236.55" y="26.833" width="15" height="15" fill="#888888" />
						</g>
					</g>
					<g>
						<g>
							<rect x="211.55" y="26.833" width="15" height="15" fill="#888888" />
						</g>
					</g>
					<g>
						<g>
							<rect x="159.33" y="119.31" width="60.5" height="15" fill="#888888" />
						</g>
					</g>
					<g>
						<g>
							<rect x="229.83" y="119.31" width="15" height="15" fill="#888888" />
						</g>
					</g>
					<g>
						<g>
							<rect x="254.83" y="119.31" width="15" height="15" fill="#888888" />
						</g>
					</g>
					<g>
						<g>
							<rect x="146.21" y="286.42" width="88.08" height="15" fill="#888888" />
						</g>
					</g>
					<g>
						<g>
							<rect x="121.21" y="286.42" width="15" height="15" fill="#888888" />
						</g>
					</g>
					<g>
						<g>
							<rect x="96.21" y="286.42" width="15" height="15" fill="#888888" />
						</g>
					</g>
					<g>
						<g>
							<rect x="96.21" y="321.97" width="138.08" height="15" fill="#888888" />
						</g>
					</g>
					<g>
						<g>
							<rect x="96.21" y="357.52" width="138.08" height="15" fill="#888888" />
						</g>
					</g>
					<g>
						<g>
							<rect x="96.21" y="393.07" width="138.08" height="15" fill="#888888" />
						</g>
					</g>
					<g>
						<g>
							<path d="M426.532,426.322c15.398-16.952,14.916-43.276-1.447-59.64l-57.11-57.109c-13.084-13.083-33.027-16.4-49.63-8.255    l6.607,13.467c10.84-5.321,23.869-3.151,32.415,5.395l57.11,57.109c11.013,11.013,11.013,28.934,0.001,39.946    c-11.014,11.013-28.934,11.013-39.947,0l-47.579-47.58l-10.607,10.606l45.247,45.246h-24.197c-6.682,0-13.092,1.486-19.054,4.416    l6.615,13.462c3.886-1.91,8.071-2.878,12.438-2.878h80.766c15.575,0,28.246,12.671,28.246,28.247    c0,15.576-12.671,28.246-28.246,28.246h-80.766c-4.368,0-8.553-0.968-12.438-2.877l-6.615,13.462    c5.961,2.93,12.372,4.416,19.054,4.416h80.766c23.846,0,43.246-19.4,43.246-43.246    C461.406,447.771,446.385,430.232,426.532,426.322z"
							fill="#888888" />
						</g>
					</g>
					<g>
					</g>
					<g>
					</g>
					<g>
					</g>
					<g>
					</g>
					<g>
					</g>
					<g>
					</g>
					<g>
					</g>
					<g>
					</g>
					<g>
					</g>
					<g>
					</g>
					<g>
					</g>
					<g>
					</g>
					<g>
					</g>
					<g>
					</g>
					<g>
					</g>
				</svg>