<?xml version="1.0" encoding="iso-8859-1"?>
<!-- Generator: Adobe Illustrator 19.0.0, SVG Export Plug-In . SVG Version: 6.00 Build 0)  -->
<svg version="1.1" id="Capa_1" xmlns="http://www.w3.org/2000/svg" xmlns:xlink="http://www.w3.org/1999/xlink" x="0px" y="0px"
	 viewBox="0 0 512 512" style="enable-background:new 0 0 512 512;" xml:space="preserve">
<path style="fill:#4BB9EC;" d="M432.73,482h-17.134V320.268c0-8.284-6.716-15-15-15c-8.284,0-15,6.716-15,15V482h-17.133
	c-8.284,0-15,6.716-15,15s6.716,15,15,15h64.266c8.284,0,15-6.716,15-15C447.73,488.716,441.014,482,432.73,482z"/>
<g>
	<path style="fill:#7CC8F0;" d="M143.533,482h-17.134V320.268c0-8.284-6.716-15-15-15s-15,6.716-15,15V482H79.267
		c-8.284,0-15,6.716-15,15s6.716,15,15,15h64.266c8.284,0,15-6.716,15-15C158.533,488.716,151.817,482,143.533,482z"/>
	<path style="fill:#7CC8F0;" d="M111.4,238.87c-8.284,0-15-6.716-15-15v-96.4c0-8.284,6.716-15,15-15s15,6.716,15,15v96.4
		C126.4,232.154,119.684,238.87,111.4,238.87z"/>
</g>
<path style="fill:#4BB9EC;" d="M400.596,238.87c-8.284,0-15-6.716-15-15v-96.4c0-8.284,6.716-15,15-15c8.284,0,15,6.716,15,15v96.4
	C415.596,232.154,408.88,238.87,400.596,238.87z"/>
<rect x="14.998" y="223.868" style="fill:#FFD400;" width="481.996" height="96.399"/>
<rect x="255.996" y="223.868" style="fill:#FF9F00;" width="240.998" height="96.399"/>
<rect x="14.998" y="31.07" style="fill:#FFD400;" width="481.996" height="96.399"/>
<rect x="255.996" y="31.07" style="fill:#FF9F00;" width="240.998" height="96.399"/>
<g>
	<path style="fill:#007A9F;" d="M496.996,208.87H15.001c-8.284,0-15,6.716-15,15v96.397c0,8.284,6.716,15,15,15h72.235
		c0.018,0,0.034,0.003,0.052,0.003c0.028,0,0.057-0.003,0.085-0.003h96.262c0.018,0,0.035,0.003,0.052,0.003
		c0.028,0,0.057-0.003,0.085-0.003h96.263c0.018,0,0.035,0.003,0.052,0.003c0.028,0,0.057-0.003,0.085-0.003h96.262
		c0.018,0,0.034,0.003,0.052,0.003c0.028,0,0.057-0.003,0.085-0.003h120.426c8.284,0,15-6.716,15-15V223.87
		C511.996,215.586,505.281,208.87,496.996,208.87z M304.369,305.269l33.199-66.397h62.859l-33.2,66.397H304.369z M207.969,305.269
		l33.2-66.397h62.857l-33.199,66.397H207.969z M111.571,305.269l33.199-66.397h62.859l-33.2,66.397H111.571z M30.001,238.87h81.228
		l-33.199,66.397h-48.03V238.87z M481.996,305.269h-81.228l33.2-66.397h48.029V305.269z"/>
	<path style="fill:#007A9F;" d="M496.996,16.071H15.001c-8.284,0-15,6.717-15,15v96.399c0,8.284,6.716,15,15,15h72.235
		c0.018,0,0.034,0.003,0.052,0.003c0.028,0,0.057-0.003,0.085-0.003h96.262c0.018,0,0.035,0.003,0.052,0.003
		c0.028,0,0.057-0.003,0.085-0.003h96.263c0.018,0,0.035,0.003,0.052,0.003c0.028,0,0.057-0.003,0.085-0.003h96.262
		c0.018,0,0.034,0.003,0.052,0.003c0.028,0,0.057-0.003,0.085-0.003h120.426c8.284,0,15-6.716,15-15V31.071
		C511.996,22.788,505.281,16.071,496.996,16.071z M304.369,112.47l33.199-66.399h62.859l-33.2,66.399H304.369z M207.969,112.47
		l33.2-66.399h62.857l-33.199,66.399H207.969z M111.571,112.47l33.199-66.399h62.859l-33.2,66.399H111.571z M30.001,46.071h81.228
		L78.031,112.47h-48.03V46.071z M481.996,112.47h-81.228l33.2-66.399h48.029V112.47z"/>
</g>
<path style="fill:#FFD400;" d="M111.406,30c-3.96,0-7.82-1.601-10.609-4.391c-2.791-2.79-4.4-6.659-4.4-10.609
	c0-3.94,1.609-7.811,4.4-10.601C103.585,1.609,107.457,0,111.406,0c3.939,0,7.811,1.609,10.6,4.399
	c2.791,2.79,4.391,6.65,4.391,10.601c0,3.95-1.6,7.819-4.391,10.609C119.216,28.399,115.345,30,111.406,30z"/>
<g>
	<path style="fill:#00465F;" d="M304.027,238.87l-33.199,66.397h-14.83v30h24.037c0.018,0,0.035,0.003,0.052,0.003
		c0.028,0,0.057-0.003,0.085-0.003h96.262c0.018,0,0.034,0.003,0.052,0.003c0.028,0,0.057-0.003,0.085-0.003h120.426
		c8.284,0,15-6.716,15-15V223.87c0-8.284-6.716-15-15-15H255.999v30L304.027,238.87L304.027,238.87z M433.967,238.87h48.029v66.397
		h-81.228L433.967,238.87z M337.568,238.87h62.859l-33.2,66.397h-62.858L337.568,238.87z"/>
	<path style="fill:#00465F;" d="M280.086,142.473c0.028,0,0.057-0.003,0.085-0.003h96.262c0.018,0,0.034,0.003,0.052,0.003
		c0.028,0,0.057-0.003,0.085-0.003h120.426c8.284,0,15-6.716,15-15V31.071c0-8.283-6.716-15-15-15H255.998v30h48.029l-33.199,66.399
		h-14.83v30h24.037C280.052,142.47,280.07,142.473,280.086,142.473z M433.967,46.071h48.029v66.399h-81.228L433.967,46.071z
		 M337.568,46.071h62.859l-33.2,66.399h-62.858L337.568,46.071z"/>
</g>
<path style="fill:#FF9F00;" d="M400.592,30c-3.949,0-7.809-1.601-10.6-4.391c-2.789-2.79-4.4-6.659-4.4-10.609
	s1.611-7.811,4.4-10.601c2.791-2.79,6.65-4.399,10.6-4.399c3.951,0,7.82,1.609,10.611,4.399c2.789,2.79,4.389,6.66,4.389,10.601
	c0,3.95-1.6,7.819-4.389,10.609C408.413,28.399,404.543,30,400.592,30z"/>
<g>
</g>
<g>
</g>
<g>
</g>
<g>
</g>
<g>
</g>
<g>
</g>
<g>
</g>
<g>
</g>
<g>
</g>
<g>
</g>
<g>
</g>
<g>
</g>
<g>
</g>
<g>
</g>
<g>
</g>
</svg>
